<?xml version="1.0" encoding="utf-8"?>
<!-- Generator: Adobe Illustrator 16.0.0, SVG Export Plug-In . SVG Version: 6.00 Build 0)  -->
<!DOCTYPE svg PUBLIC "-//W3C//DTD SVG 1.1//EN" "http://www.w3.org/Graphics/SVG/1.1/DTD/svg11.dtd">
<svg version="1.1" id="Layer_1" xmlns="http://www.w3.org/2000/svg" xmlns:xlink="http://www.w3.org/1999/xlink" x="0px" y="0px"
	 width="540px" height="154px" viewBox="0 0 540 154" enable-background="new 0 0 540 154" xml:space="preserve">
<g>
	<path fill="#FFFFFF" d="M477.485,153.684c-33.188,0-60.188-27-60.188-60.188c0-33.187,27-60.187,60.188-60.187
		s60.188,27,60.188,60.187C537.673,126.684,510.673,153.684,477.485,153.684z M477.485,57.193
		c-20.018,0-36.304,16.285-36.304,36.303c0,20.019,16.286,36.305,36.304,36.305s36.304-16.286,36.304-36.305
		C513.789,73.478,497.503,57.193,477.485,57.193z"/>
</g>
<g>
	<path fill="#FFFFFF" d="M326.584,153.684c-33.188,0-60.188-27-60.188-60.188s27-60.187,60.188-60.187
		c24.15,0,45.885,14.353,55.371,36.566l-21.965,9.38c-5.723-13.402-18.836-22.062-33.406-22.062
		c-20.018,0-36.304,16.285-36.304,36.303c0,20.019,16.286,36.305,36.304,36.305c14.18,0,27.15-8.34,33.045-21.243l21.725,9.921
		C371.587,139.865,350.088,153.684,326.584,153.684z"/>
</g>
<g>
	<path fill="#FFFFFF" d="M61.039,153.684c-33.188,0-60.188-27-60.188-60.188s27-60.187,60.188-60.187
		c21.492,0,41.5,11.586,52.217,30.239l5.25,9.139l-49.96,37.669L54.167,91.287L86.08,67.224c-6.67-6.339-15.62-10.03-25.041-10.03
		c-20.018,0-36.304,16.285-36.304,36.303c0,20.019,16.286,36.305,36.304,36.305c14.038,0,26.955-8.221,32.907-20.943l21.633,10.121
		C105.716,140.061,84.308,153.684,61.039,153.684z"/>
</g>
<g>
	<path fill="#FFFFFF" d="M159,153.009c-22,0-40-18.101-40-40.349V0h24v112.66c0,9.078,7,16.465,16,16.465V153.009z"/>
</g>
<g>
	<path fill="#FFFFFF" d="M426,153.009c-22,0-40-18.101-40-40.349V0h24v112.66c0,9.078,8,16.465,16,16.465V153.009z"/>
</g>
<g>
	<path fill="#FFFFFF" d="M209.119,153.684c-33.188,0-60.188-27-60.188-60.188s27-60.187,60.188-60.187
		c21.493,0,41.501,11.586,52.217,30.239l5.251,9.139l-49.96,37.669l-14.379-19.069l31.913-24.063
		c-6.671-6.339-15.62-10.03-25.042-10.03c-20.018,0-36.303,16.285-36.303,36.303c0,20.019,16.286,36.305,36.303,36.305
		c14.039,0,26.955-8.221,32.907-20.943l21.634,10.121C253.796,140.061,232.388,153.684,209.119,153.684z"/>
</g>
<g>
	<rect x="374" y="16" fill="#FFFFFF" width="51" height="15"/>
</g>
</svg>
