<?xml version="1.0" standalone="no"?>
<!DOCTYPE svg PUBLIC "-//W3C//DTD SVG 20010904//EN"
 "http://www.w3.org/TR/2001/REC-SVG-20010904/DTD/svg10.dtd">
<svg version="1.0" xmlns="http://www.w3.org/2000/svg"
 width="600.000000pt" height="172.000000pt" viewBox="0 0 600.000000 172.000000"
 preserveAspectRatio="xMidYMid meet">
<metadata>
Created by potrace 1.13, written by Peter Selinger 2001-2015
</metadata>
<g transform="translate(0.000000,172.000000) scale(0.100000,-0.100000)"
fill="#000000" stroke="none">
<path d="M1320 1093 c0 -351 5 -658 10 -695 29 -201 181 -353 383 -383 l47 -7
0 128 0 129 -52 20 c-33 13 -62 34 -82 58 l-31 39 -3 669 -2 669 -135 0 -135
0 0 -627z"/>
<path d="M4310 1630 l0 -90 -70 0 -70 0 0 -80 0 -80 70 0 70 0 0 -488 c0 -520
2 -548 51 -644 12 -23 44 -65 71 -95 77 -80 159 -123 266 -138 l52 -7 0 129 0
130 -40 12 c-52 15 -99 56 -121 106 -17 37 -19 76 -19 518 l0 477 85 0 85 0 0
80 0 80 -85 0 -85 0 0 90 0 90 -130 0 -130 0 0 -90z"/>
<path d="M502 1320 c-228 -61 -417 -252 -477 -480 -24 -89 -24 -236 -1 -327
59 -236 248 -425 486 -489 84 -22 233 -22 320 0 163 41 306 143 401 284 l51
76 -119 57 -118 56 -26 -41 c-141 -221 -450 -255 -634 -71 -164 164 -159 424
10 584 76 72 149 104 251 109 55 3 98 -1 135 -11 59 -18 160 -75 166 -94 3 -6
-75 -71 -171 -143 l-175 -132 76 -101 c42 -56 77 -103 78 -105 2 -2 512 380
553 413 2 2 -20 42 -49 90 -89 151 -223 263 -379 316 -95 32 -278 36 -378 9z"/>
<path d="M2166 1324 c-305 -74 -519 -365 -503 -684 15 -296 217 -542 507 -617
85 -21 235 -21 320 2 169 44 319 155 410 303 18 29 29 57 24 61 -13 11 -210
101 -220 101 -5 0 -25 -23 -44 -52 -158 -232 -508 -229 -670 7 -123 179 -75
442 103 564 78 53 155 74 255 69 75 -3 100 -9 154 -36 35 -17 73 -42 85 -54
l22 -23 -169 -129 c-94 -70 -172 -131 -175 -135 -2 -5 30 -54 71 -110 l76
-101 37 27 c308 231 511 387 511 394 0 29 -96 165 -165 234 -92 93 -182 145
-301 175 -92 24 -239 25 -328 4z"/>
<path d="M3480 1325 c-106 -29 -217 -92 -299 -170 -139 -133 -203 -279 -205
-470 -1 -125 12 -188 59 -290 167 -364 605 -499 952 -294 74 44 183 152 222
220 17 30 31 59 31 64 0 6 -48 33 -107 60 -60 27 -111 50 -115 52 -3 2 -18
-17 -32 -41 -32 -56 -104 -119 -170 -150 -200 -97 -443 -13 -541 188 -101 206
-14 451 194 550 61 29 74 31 171 31 98 0 110 -2 173 -32 74 -35 164 -118 186
-172 8 -17 16 -31 20 -31 3 0 56 22 116 49 81 35 110 52 109 65 -3 30 -68 126
-124 184 -73 75 -153 127 -253 164 -72 27 -97 32 -207 34 -89 3 -141 0 -180
-11z"/>
<path d="M5166 1324 c-180 -44 -353 -182 -436 -350 -99 -202 -91 -450 22 -642
18 -31 67 -91 109 -133 62 -63 93 -85 170 -122 110 -53 182 -70 299 -71 301 0
566 206 646 504 23 86 22 243 -1 330 -60 231 -252 422 -481 480 -92 24 -239
25 -328 4z m336 -282 c161 -79 258 -261 228 -430 -31 -178 -161 -310 -337
-341 -156 -29 -323 47 -412 187 -113 179 -62 432 113 551 80 54 141 71 247 68
84 -2 103 -6 161 -35z"/>
</g>
</svg>
